<svg width="800px" height="800px" viewBox="-2.4 -2.4 28.80 28.80" xmlns="http://www.w3.org/2000/svg" fill="none">
    <defs>
        <style>.cls-1{fill:none;stroke:#020202;stroke-linecap:round;stroke-linejoin:round;stroke-width:0.672;}</style>
    </defs>
    <path class="cls-1" d="M3 12C3 11.9533 3.03002 11.759 3.18753 11.3788C3.33385 11.0256 3.55568 10.5926 3.8453 10.1025C4.42361 9.1238 5.23505 7.97999 6.14322 6.89018C7.05348 5.79788 8.03609 4.78969 8.94978 4.06454C9.4065 3.70204 9.8264 3.42608 10.1945 3.2444C10.571 3.05862 10.8359 3 11 3C11.1641 3 11.429 3.05862 11.8055 3.2444C12.1736 3.42608 12.5935 3.70204 13.0502 4.06454C13.9639 4.78969 14.9465 5.79788 15.8568 6.89018C16.765 7.97999 17.5764 9.1238 18.1547 10.1025C18.4443 10.5926 18.6662 11.0256 18.8125 11.3788C18.97 11.759 19 11.9533 19 12V20.0018C19 20.5529 18.5535 21 18 21H14V15C14 13.8954 13.1046 13 12 13H10C8.89543 13 8 13.8954 8 15V21H4C3.44652 21 3 20.5529 3 20.0018V12Z"/>
</svg>